<svg xmlns="http://www.w3.org/2000/svg" xmlns:xlink="http://www.w3.org/1999/xlink" width="402" zoomAndPan="magnify" viewBox="0 0 301.5 225.749993" height="301" preserveAspectRatio="xMidYMid meet" version="1.0"><defs><g/><clipPath id="623c2c49f0"><path d="M 34 21 L 109 21 L 109 97.402344 L 34 97.402344 Z M 34 21 " clip-rule="nonzero"/></clipPath><clipPath id="a98d6a94ca"><path d="M 34 29 L 101 29 L 101 97.402344 L 34 97.402344 Z M 34 29 " clip-rule="nonzero"/></clipPath><clipPath id="98768b0730"><path d="M 86 0.0625 L 172 0.0625 L 172 92 L 86 92 Z M 86 0.0625 " clip-rule="nonzero"/></clipPath><clipPath id="48828c4fbd"><path d="M 0 97.667969 L 86.296875 97.667969 L 86.296875 183.96875 L 0 183.96875 Z M 0 97.667969 " clip-rule="nonzero"/></clipPath><clipPath id="a72e2332d5"><path d="M 43.148438 97.667969 C 19.320312 97.667969 0 116.988281 0 140.816406 C 0 164.648438 19.320312 183.96875 43.148438 183.96875 C 66.980469 183.96875 86.296875 164.648438 86.296875 140.816406 C 86.296875 116.988281 66.980469 97.667969 43.148438 97.667969 Z M 43.148438 97.667969 " clip-rule="nonzero"/></clipPath><clipPath id="6e6c95b42e"><path d="M 76.121094 165.09375 L 92.535156 165.09375 L 92.535156 181.507812 L 76.121094 181.507812 Z M 76.121094 165.09375 " clip-rule="nonzero"/></clipPath><clipPath id="19de040557"><path d="M 84.328125 165.09375 C 79.796875 165.09375 76.121094 168.765625 76.121094 173.300781 C 76.121094 177.832031 79.796875 181.507812 84.328125 181.507812 C 88.863281 181.507812 92.535156 177.832031 92.535156 173.300781 C 92.535156 168.765625 88.863281 165.09375 84.328125 165.09375 Z M 84.328125 165.09375 " clip-rule="nonzero"/></clipPath><clipPath id="239db0a9e6"><path d="M 34.941406 132.613281 L 51.355469 132.613281 L 51.355469 149.023438 L 34.941406 149.023438 Z M 34.941406 132.613281 " clip-rule="nonzero"/></clipPath><clipPath id="b0d64b2866"><path d="M 43.148438 132.613281 C 38.617188 132.613281 34.941406 136.285156 34.941406 140.816406 C 34.941406 145.351562 38.617188 149.023438 43.148438 149.023438 C 47.679688 149.023438 51.355469 145.351562 51.355469 140.816406 C 51.355469 136.285156 47.679688 132.613281 43.148438 132.613281 Z M 43.148438 132.613281 " clip-rule="nonzero"/></clipPath></defs><g clip-path="url(#623c2c49f0)"><path fill="#ff2c19" d="M 89.648438 21.636719 L 43.785156 25.996094 C 37.375 26.605469 33.257812 33.605469 34.9375 41.035156 L 43.726562 79.882812 C 45.382812 87.191406 51.945312 91.773438 57.957031 89.820312 L 76.976562 83.636719 C 78.992188 82.980469 81.226562 83.484375 83.019531 84.996094 L 99.527344 97.015625 C 100.042969 97.390625 100.648438 96.894531 100.492188 96.222656 L 96.738281 80.011719 C 96.398438 78.542969 97.074219 77.101562 98.28125 76.710938 L 101.785156 75.570312 C 106.460938 74.050781 109.058594 68.484375 107.746094 62.808594 L 100.28125 30.550781 C 99 25.023438 94.421875 21.183594 89.648438 21.636719 " fill-opacity="1" fill-rule="nonzero"/></g><g clip-path="url(#a98d6a94ca)"><path fill="#e62816" d="M 100.492188 96.222656 L 99.359375 91.332031 L 82.128906 79.371094 C 80.671875 78.363281 78.824219 78.089844 77.136719 78.636719 L 60.792969 83.953125 C 51.28125 87.101562 49.195312 83.558594 46.566406 74.015625 L 37.777344 35.167969 C 37.304688 33.082031 37.289062 31.03125 37.652344 29.144531 C 35.082031 32 33.898438 36.4375 34.9375 41.035156 L 43.726562 79.882812 C 45.382812 87.191406 51.945312 91.773438 57.957031 89.820312 L 76.976562 83.636719 C 78.992188 82.980469 81.226562 83.484375 83.019531 84.996094 L 99.527344 97.015625 C 100.042969 97.390625 100.648438 96.894531 100.492188 96.222656 " fill-opacity="1" fill-rule="nonzero"/></g><path fill="#25bf6a" d="M 217.953125 24.570312 L 168.414062 23.042969 C 163.367188 22.890625 158.878906 27.011719 157.996094 32.617188 L 152.84375 65.320312 C 151.9375 71.078125 155.125 76.476562 160.160156 77.703125 L 163.929688 78.621094 C 165.234375 78.941406 166.058594 80.335938 165.824219 81.828125 L 164.023438 93.261719 C 163.859375 94.304688 164.808594 95.070312 165.65625 94.582031 L 181.625 85.175781 C 183.210938 84.136719 185.082031 83.78125 186.867188 84.214844 L 208.332031 89.449219 C 214.269531 90.894531 220.242188 86.316406 221.277344 79.519531 L 227.617188 37.855469 C 228.667969 30.945312 224.171875 24.761719 217.953125 24.570312 " fill-opacity="1" fill-rule="nonzero"/><path fill="#20a65c" d="M 224.238281 27.234375 C 224.804688 29.027344 224.984375 31.019531 224.671875 33.074219 L 218.332031 74.738281 C 217.148438 83.3125 213.40625 86.796875 205.386719 84.667969 L 186.582031 80.082031 C 184.875 79.667969 183.070312 79.929688 181.554688 80.820312 L 164.398438 90.867188 L 164.023438 93.261719 C 163.859375 94.304688 164.808594 95.070312 165.65625 94.582031 L 181.625 85.175781 C 183.210938 84.136719 185.082031 83.78125 186.867188 84.214844 L 208.332031 89.449219 C 214.269531 90.894531 220.242188 86.316406 221.277344 79.519531 L 227.617188 37.855469 C 228.257812 33.652344 226.84375 29.714844 224.238281 27.234375 " fill-opacity="1" fill-rule="nonzero"/><path fill="#e3e3e3" d="M 96.992188 77.832031 C 97.273438 77.300781 97.71875 76.894531 98.28125 76.710938 L 98.304688 76.703125 C 97.597656 76.96875 97.355469 77.269531 96.992188 77.832031 M 98.789062 76.546875 L 98.796875 76.542969 L 98.789062 76.546875 M 99.910156 76.179688 L 101.785156 75.570312 C 106.460938 74.050781 109.058594 68.484375 107.746094 62.808594 L 100.28125 30.550781 C 99.308594 26.355469 96.4375 23.132812 93.019531 22.019531 L 167.285156 23.082031 C 162.710938 23.515625 158.8125 27.433594 157.996094 32.617188 L 152.84375 65.320312 C 152.347656 68.453125 153.070312 71.480469 154.640625 73.789062 L 99.910156 76.179688 M 156.480469 75.832031 C 155.820312 75.28125 155.234375 74.644531 154.742188 73.933594 C 155.242188 74.644531 155.828125 75.28125 156.480469 75.832031 M 174.539062 23.234375 L 171.59375 23.140625 L 174.539062 23.234375 M 83.648438 22.207031 L 86.585938 21.929688 L 83.648438 22.207031 " fill-opacity="1" fill-rule="nonzero"/><path fill="#e32716" d="M 96.992188 77.832031 C 93.15625 75.125 90.457031 70.640625 89.902344 65.367188 L 83.648438 22.207031 L 86.585938 21.929688 L 93.019531 22.019531 C 96.4375 23.132812 99.308594 26.355469 100.28125 30.550781 L 107.746094 62.808594 C 109.058594 68.484375 106.460938 74.050781 101.785156 75.570312 L 99.910156 76.179688 L 99.898438 76.179688 L 98.796875 76.542969 L 98.789062 76.546875 C 98.605469 76.597656 98.445312 76.648438 98.304688 76.703125 L 98.28125 76.710938 C 97.71875 76.894531 97.273438 77.300781 96.992188 77.832031 " fill-opacity="1" fill-rule="nonzero"/><path fill="#21aa5e" d="M 157.316406 76.457031 L 157.105469 76.308594 C 156.890625 76.15625 156.683594 76 156.480469 75.832031 C 155.828125 75.28125 155.242188 74.644531 154.742188 73.933594 C 154.707031 73.886719 154.675781 73.835938 154.644531 73.789062 L 154.640625 73.789062 C 153.070312 71.480469 152.347656 68.453125 152.84375 65.320312 L 157.996094 32.617188 C 158.8125 27.433594 162.710938 23.515625 167.285156 23.082031 L 171.59375 23.140625 L 174.539062 23.234375 C 174.535156 23.453125 174.53125 23.660156 174.53125 23.855469 L 174.53125 60.722656 C 174.53125 64.546875 173.230469 68.207031 170.867188 71.035156 C 168.441406 73.933594 165.125 75.699219 161.527344 76.007812 L 157.316406 76.457031 " fill-opacity="1" fill-rule="nonzero"/><g clip-path="url(#98768b0730)"><path fill="#ffbb02" d="M 171.75 10.351562 C 171.484375 4.503906 166.367188 0.0625 160.511719 0.535156 L 107.511719 1.5625 C 105.675781 1.597656 97.003906 1.796875 95.292969 2.449219 C 90.101562 4.425781 87.625 8.5 86.652344 13.28125 C 86.121094 15.882812 86.085938 18.566406 86.476562 21.195312 L 92.824219 65.007812 C 93.589844 72.523438 99.601562 78.207031 106.578125 77.625 L 126.601562 75.738281 C 127.285156 75.683594 127.917969 76.164062 128.117188 76.894531 L 133.933594 89.332031 C 134.042969 89.5625 134.132812 89.800781 134.230469 90.039062 C 134.890625 91.695312 137.058594 91.808594 137.816406 90.109375 L 144.273438 75.660156 C 144.5 75.15625 144.945312 74.816406 145.449219 74.761719 L 161.246094 73.085938 C 167.078125 72.601562 171.585938 67.210938 171.585938 60.722656 L 171.585938 23.855469 C 171.585938 20.8125 171.980469 15.308594 171.75 10.351562 " fill-opacity="1" fill-rule="nonzero"/></g><path fill="#e8aa02" d="M 125.5625 73.714844 C 125.363281 72.984375 124.730469 72.503906 124.046875 72.5625 L 104.023438 74.445312 C 100.542969 74.738281 97.300781 73.464844 94.832031 71.1875 C 97.304688 75.382812 101.707031 78.03125 106.578125 77.625 L 126.511719 75.746094 L 125.5625 73.714844 " fill-opacity="1" fill-rule="nonzero"/><path fill="#e8aa02" d="M 171.75 10.351562 C 171.613281 7.351562 170.199219 4.722656 168.0625 2.9375 C 168.722656 4.210938 169.125 5.644531 169.195312 7.171875 C 169.425781 12.132812 169.03125 17.632812 169.03125 20.679688 L 169.03125 57.542969 C 169.304688 65.605469 165.789062 69.597656 158.691406 69.910156 L 142.894531 71.585938 C 142.390625 71.636719 141.945312 71.976562 141.71875 72.480469 L 135.261719 86.929688 C 134.875 87.800781 134.117188 88.191406 133.382812 88.148438 L 133.933594 89.332031 C 134.042969 89.5625 134.132812 89.800781 134.230469 90.039062 C 134.890625 91.695312 137.058594 91.808594 137.816406 90.109375 L 144.273438 75.660156 C 144.5 75.15625 144.945312 74.816406 145.449219 74.761719 L 161.246094 73.085938 C 167.078125 72.601562 171.585938 67.210938 171.585938 60.722656 L 171.585938 23.855469 C 171.585938 20.8125 171.980469 15.308594 171.75 10.351562 " fill-opacity="1" fill-rule="nonzero"/><path fill="#ffffff" d="M 142.785156 20.089844 C 140.074219 17.703125 136.414062 16.054688 131.828125 16.054688 C 127.46875 16.054688 123.964844 17.6875 121.28125 20.046875 C 119.847656 21.308594 118.769531 22.71875 118.042969 24.269531 C 116.96875 26.558594 118.667969 29.183594 121.207031 29.183594 C 122.914062 29.183594 124.488281 28.230469 125.25 26.703125 C 125.738281 25.722656 126.355469 24.921875 127.09375 24.296875 C 128.460938 23.144531 130.15625 22.566406 132.183594 22.566406 C 134.285156 22.566406 135.960938 23.121094 137.199219 24.222656 C 138.441406 25.328125 139.0625 26.65625 139.0625 28.203125 C 139.0625 29.316406 138.710938 30.335938 138.011719 31.261719 C 137.554688 31.847656 136.164062 33.082031 133.832031 34.972656 C 131.765625 36.644531 130.308594 38.167969 129.464844 39.546875 C 129.296875 39.816406 129.15625 40.101562 129.03125 40.394531 C 128.410156 41.863281 128.476562 45.929688 128.316406 49.171875 C 128.214844 51.25 129.34375 52.996094 131.433594 53.027344 L 131.957031 53.027344 C 133.949219 53.054688 135.597656 51.507812 135.699219 49.527344 C 135.839844 46.828125 135.570312 43.734375 135.835938 43.183594 C 136.242188 42.335938 137.289062 41.210938 138.976562 39.8125 C 142.234375 37.113281 144.363281 34.980469 145.359375 33.414062 C 146.351562 31.847656 146.851562 30.1875 146.851562 28.429688 C 146.851562 25.257812 145.496094 22.480469 142.785156 20.089844 " fill-opacity="1" fill-rule="nonzero"/><path fill="#ffffff" d="M 127.957031 61.066406 C 127.957031 58.6875 129.894531 56.753906 132.28125 56.753906 C 134.671875 56.753906 136.609375 58.6875 136.609375 61.066406 C 136.609375 63.449219 134.671875 65.378906 132.28125 65.378906 C 129.894531 65.378906 127.957031 63.449219 127.957031 61.066406 " fill-opacity="1" fill-rule="nonzero"/><path fill="#ffffff" d="M 206.257812 40.898438 C 204.816406 38.207031 202.398438 35.820312 198.757812 34.472656 C 195.296875 33.1875 192.03125 33.453125 189.203125 34.539062 C 187.691406 35.117188 186.417969 35.917969 185.378906 36.9375 C 183.851562 38.4375 184.421875 41.019531 186.433594 41.765625 C 187.789062 42.269531 189.324219 41.976562 190.378906 40.988281 C 191.058594 40.355469 191.785156 39.898438 192.558594 39.621094 C 193.980469 39.105469 195.5 39.148438 197.109375 39.746094 C 198.777344 40.363281 199.941406 41.292969 200.597656 42.535156 C 201.257812 43.777344 201.355469 45.015625 200.898438 46.242188 C 200.566406 47.125 199.984375 47.832031 199.15625 48.359375 C 198.621094 48.691406 197.148438 49.261719 194.738281 50.074219 C 192.601562 50.796875 190.996094 51.578125 189.917969 52.421875 C 189.703125 52.585938 189.507812 52.769531 189.320312 52.96875 C 188.390625 53.949219 187.242188 57.195312 186.152344 59.722656 C 185.453125 61.34375 185.832031 63.0625 187.480469 63.699219 L 187.898438 63.851562 C 189.46875 64.460938 191.238281 63.71875 191.90625 62.175781 C 192.816406 60.078125 193.519531 57.542969 193.894531 57.183594 C 194.46875 56.628906 195.632812 56.046875 197.386719 55.433594 C 200.773438 54.25 203.09375 53.183594 204.347656 52.230469 C 205.601562 51.28125 206.492188 50.109375 207.011719 48.714844 C 207.953125 46.195312 207.699219 43.59375 206.257812 40.898438 " fill-opacity="1" fill-rule="nonzero"/><path fill="#ffffff" d="M 182.339844 69.058594 C 183.042969 67.167969 185.152344 66.207031 187.050781 66.910156 C 188.949219 67.613281 189.914062 69.714844 189.207031 71.605469 C 188.5 73.496094 186.390625 74.457031 184.496094 73.753906 C 182.597656 73.050781 181.632812 70.949219 182.339844 69.058594 " fill-opacity="1" fill-rule="nonzero"/><path fill="#ffffff" d="M 72.644531 35.421875 C 70.167969 34.449219 67.21875 34.230469 64.046875 35.378906 C 61.03125 36.46875 59.015625 38.480469 57.757812 40.785156 C 57.085938 42.015625 56.691406 43.261719 56.582031 44.519531 C 56.417969 46.371094 58.257812 47.757812 60.011719 47.125 C 61.195312 46.695312 62.042969 45.640625 62.183594 44.394531 C 62.277344 43.59375 62.5 42.882812 62.851562 42.265625 C 63.503906 41.128906 64.535156 40.304688 65.9375 39.796875 C 67.390625 39.269531 68.6875 39.230469 69.824219 39.683594 C 70.964844 40.136719 71.726562 40.898438 72.117188 41.96875 C 72.402344 42.742188 72.414062 43.535156 72.164062 44.347656 C 71.996094 44.867188 71.347656 46.074219 70.210938 47.964844 C 69.203125 49.636719 68.582031 51.058594 68.34375 52.222656 C 68.296875 52.453125 68.269531 52.683594 68.257812 52.917969 C 68.199219 54.089844 69.273438 56.886719 69.980469 59.167969 C 70.4375 60.632812 71.65625 61.558594 73.109375 61.054688 L 73.472656 60.921875 C 74.855469 60.445312 75.609375 58.960938 75.179688 57.5625 C 74.59375 55.664062 73.625 53.589844 73.671875 53.140625 C 73.738281 52.453125 74.179688 51.414062 74.992188 50.023438 C 76.566406 47.339844 77.5 45.328125 77.789062 43.996094 C 78.082031 42.664062 78.007812 41.390625 77.5625 40.175781 C 76.761719 37.980469 75.125 36.398438 72.644531 35.421875 " fill-opacity="1" fill-rule="nonzero"/><path fill="#ffffff" d="M 72.734375 67.492188 C 72.132812 65.84375 72.988281 64.023438 74.640625 63.421875 C 76.292969 62.824219 78.121094 63.671875 78.722656 65.320312 C 79.324219 66.96875 78.472656 68.789062 76.816406 69.386719 C 75.164062 69.988281 73.335938 69.136719 72.734375 67.492188 " fill-opacity="1" fill-rule="nonzero"/><g fill="#fdb811" fill-opacity="0.4"><g transform="translate(88.62266, 173.509906)"><g><path d="M 29.75 0.609375 C 45.984375 0.609375 59.515625 -12.921875 59.515625 -29.140625 L 59.515625 -47.90625 C 59.515625 -55.59375 53.140625 -61.953125 45.734375 -61.953125 C 37.953125 -61.953125 31.671875 -55.59375 31.671875 -47.90625 L 31.671875 -30.8125 C 31.671875 -29.75 30.8125 -28.625 29.75 -28.625 C 28.625 -28.625 27.84375 -29.75 27.84375 -30.8125 L 27.84375 -47.90625 C 27.84375 -55.59375 21.734375 -61.953125 14.046875 -61.953125 C 6.28125 -61.953125 0 -55.59375 0 -47.90625 L 0 -29.140625 C 0 -12.921875 13.4375 0.609375 29.75 0.609375 Z M 29.75 0.609375 "/></g></g></g><g fill="#fdb811" fill-opacity="0.4"><g transform="translate(150.581114, 173.509906)"><g><path d="M 13.78125 -0.09375 C 21.734375 -0.09375 27.84375 -6.453125 27.84375 -14.046875 L 27.84375 -48.078125 C 27.84375 -55.671875 21.734375 -61.78125 13.78125 -61.78125 C 6.109375 -61.78125 0 -55.671875 0 -48.078125 L 0 -14.046875 C 0 -6.453125 6.109375 -0.09375 13.78125 -0.09375 Z M 13.78125 -0.09375 "/></g></g></g><g fill="#fdb811" fill-opacity="0.4"><g transform="translate(181.211274, 173.509906)"><g><path d="M 42.234375 -62.046875 L 13.53125 -62.046875 C 5.84375 -62.046875 -0.4375 -55.765625 -0.4375 -48.171875 C -0.4375 -41.453125 4.1875 -35.953125 10.390625 -34.46875 L 17.546875 -39.53125 C 18.0625 -39.796875 18.765625 -39 18.234375 -38.578125 L 4.359375 -24.4375 C 1.484375 -21.8125 -0.609375 -18.234375 -0.609375 -13.875 C -0.609375 -6.203125 5.84375 0 13.53125 0 L 42.5 0 C 50.09375 0 56.375 -6.984375 56.375 -13.875 C 56.375 -21.125 51.828125 -26.09375 45.546875 -27.578125 L 37.875 -22.515625 C 37.4375 -21.984375 36.90625 -22.78125 37.171875 -23.21875 C 42.234375 -28.28125 47.296875 -33.25 52.015625 -38.046875 C 60.21875 -46.25 55.84375 -62.046875 42.234375 -62.046875 Z M 42.234375 -62.046875 "/></g></g></g><g fill="#fdb811" fill-opacity="1"><g transform="translate(88.62266, 173.509906)"><g><path d="M 29.75 0.609375 C 45.984375 0.609375 59.515625 -12.921875 59.515625 -29.140625 L 59.515625 -47.90625 C 59.515625 -55.59375 53.140625 -61.953125 45.734375 -61.953125 C 37.953125 -61.953125 31.671875 -55.59375 31.671875 -47.90625 L 31.671875 -30.8125 C 31.671875 -29.75 30.8125 -28.625 29.75 -28.625 C 28.625 -28.625 27.84375 -29.75 27.84375 -30.8125 L 27.84375 -47.90625 C 27.84375 -55.59375 21.734375 -61.953125 14.046875 -61.953125 C 6.28125 -61.953125 0 -55.59375 0 -47.90625 L 0 -29.140625 C 0 -12.921875 13.4375 0.609375 29.75 0.609375 Z M 29.75 0.609375 "/></g></g></g><g fill="#fdb811" fill-opacity="1"><g transform="translate(150.581114, 173.509906)"><g><path d="M 13.78125 -0.09375 C 21.734375 -0.09375 27.84375 -6.453125 27.84375 -14.046875 L 27.84375 -48.078125 C 27.84375 -55.671875 21.734375 -61.78125 13.78125 -61.78125 C 6.109375 -61.78125 0 -55.671875 0 -48.078125 L 0 -14.046875 C 0 -6.453125 6.109375 -0.09375 13.78125 -0.09375 Z M 13.78125 -0.09375 "/></g></g></g><g fill="#fdb811" fill-opacity="1"><g transform="translate(181.211274, 173.509906)"><g><path d="M 42.234375 -62.046875 L 13.53125 -62.046875 C 5.84375 -62.046875 -0.4375 -55.765625 -0.4375 -48.171875 C -0.4375 -41.453125 4.1875 -35.953125 10.390625 -34.46875 L 17.546875 -39.53125 C 18.0625 -39.796875 18.765625 -39 18.234375 -38.578125 L 4.359375 -24.4375 C 1.484375 -21.8125 -0.609375 -18.234375 -0.609375 -13.875 C -0.609375 -6.203125 5.84375 0 13.53125 0 L 42.5 0 C 50.09375 0 56.375 -6.984375 56.375 -13.875 C 56.375 -21.125 51.828125 -26.09375 45.546875 -27.578125 L 37.875 -22.515625 C 37.4375 -21.984375 36.90625 -22.78125 37.171875 -23.21875 C 42.234375 -28.28125 47.296875 -33.25 52.015625 -38.046875 C 60.21875 -46.25 55.84375 -62.046875 42.234375 -62.046875 Z M 42.234375 -62.046875 "/></g></g></g><g clip-path="url(#48828c4fbd)"><g clip-path="url(#a72e2332d5)"><path fill="#fdb811" d="M 0 97.667969 L 86.296875 97.667969 L 86.296875 183.96875 L 0 183.96875 Z M 0 97.667969 " fill-opacity="1" fill-rule="nonzero"/></g></g><g clip-path="url(#6e6c95b42e)"><g clip-path="url(#19de040557)"><path fill="#fdb811" d="M 76.121094 165.09375 L 92.535156 165.09375 L 92.535156 181.507812 L 76.121094 181.507812 Z M 76.121094 165.09375 " fill-opacity="1" fill-rule="nonzero"/></g></g><g clip-path="url(#239db0a9e6)"><g clip-path="url(#b0d64b2866)"><path fill="#ffffff" d="M 34.941406 132.613281 L 51.355469 132.613281 L 51.355469 149.023438 L 34.941406 149.023438 Z M 34.941406 132.613281 " fill-opacity="1" fill-rule="nonzero"/></g></g></svg>